<?xml version="1.0" encoding="utf-8"?>
<!-- Generator: Adobe Illustrator 26.5.0, SVG Export Plug-In . SVG Version: 6.00 Build 0)  -->
<svg version="1.1" id="Capa_1" xmlns="http://www.w3.org/2000/svg" xmlns:xlink="http://www.w3.org/1999/xlink" x="0px" y="0px"
	 viewBox="0 0 220.1 100" style="enable-background:new 0 0 220.1 100;" xml:space="preserve">
<style type="text/css">
	.st0{fill:#2A2230;}
	.st1{fill:#A07D37;}
	.st2{fill:#FFFFFF;}
	.st3{fill:#4A3956;}
</style>
<g>
	<g id="Grupo_3" transform="translate(197.11 147.548)">
		<path id="Trazado_1" class="st0" d="M-184.7-68.1h58.8c-0.5-4.9-3.2-9.3-7.5-12.8c0.7-0.5,1.3-1.1,1.8-1.7c1.3-1.8,1.9-3.9,2-6.1
			c0-2.5-0.6-5-1.6-7.3c-1.1-2.4-2.3-4.7-3.6-7c-0.7-1.2-1.3-2.3-1.8-3.6c-0.5-1.1-1-2.3-1.3-3.5c-0.8-2.3-1.4-4.8-2.4-7
			c-0.9-2.1-2.2-3.9-3.9-5.5c-2.8-2.5-6.4-4-10.1-4.2h-0.1c-0.2,0-0.5-0.1-0.8-0.1c-0.3,0-0.6,0-0.8,0.1h-0.1
			c-4.3,0.2-8.4,2.1-11.3,5.3c-3.3,3.6-4.2,8.6-5.9,13.1c-1.8,4.9-5.1,9.1-6.8,14.1c-0.8,2.3-1.1,4.7-0.8,7.2
			c0.3,2.2,1.3,4.2,2.9,5.7c0.3,0.3,0.6,0.6,1,0.8C-181.4-77.7-184.1-73.2-184.7-68.1z"/>
		<path id="Trazado_2" class="st1" d="M-144.1-84c-0.1,0.4-0.2,0.9-0.3,1.3c-0.1,0.2-0.1,0.4-0.2,0.7c-0.1,0.1-0.1,0.2-0.1,0.2v0.1
			c-0.1,0.1-0.1,0.1-0.1,0.2c-0.2,0.4-0.4,0.8-0.6,1.2l-0.3,0.5c0,0,0,0.1-0.1,0.1c0,0,0,0,0,0l-0.1,0.1c-0.1,0.1-0.2,0.2-0.2,0.3
			c-0.3,0.4-0.7,0.7-1.1,1.1l-0.1,0.1c0,0-0.1,0-0.1,0.1c0,0,0,0,0,0h-0.1l-0.1,0.1c-0.1-0.4-0.2-0.8-0.3-1.2
			c-0.1-0.4-0.6-0.7-1-0.6c-0.2,0.1-0.4,0.2-0.5,0.4c-0.2,0.3-0.4,0.6-0.6,0.9c0,0-0.1,0.1-0.1,0.1c-0.1,0.1-0.1,0.1-0.1,0.2
			l-0.3,0.4c-0.2,0.3-0.5,0.5-0.8,0.7c-0.1,0.1-0.3,0.3-0.4,0.4c0,0-0.1,0.1-0.2,0.1s-0.1,0.1-0.2,0.1c-0.6,0.4-1.2,0.8-1.8,1.1
			c-0.1,0-0.1,0.1-0.2,0.1l-0.1,0.1l-0.5,0.2c-0.1,0-0.1,0.1-0.2,0.1c-0.1-0.6-0.2-1.2-0.3-1.9c-0.1-0.4-0.6-0.7-1-0.6
			c-0.1,0-0.2,0.1-0.2,0.1c-0.9,0.6-1.7,1.4-2.2,2.3c-0.1-0.1-0.2-0.1-0.3-0.1c-0.1-0.1-0.2-0.1-0.3-0.1c-0.1,0-0.1,0-0.2-0.1
			c0.1-0.1,0.1-0.1,0-0.2c-0.3-0.1-0.6-0.3-0.8-0.5c-0.1-0.1-0.3-0.2-0.4-0.3c-0.1-0.1-0.1-0.1-0.2-0.1c0,0-0.1-0.1-0.1-0.1
			c-0.5-0.4-0.9-0.9-1.3-1.4l-0.1-0.1c-0.1-0.1-0.1-0.1-0.1-0.2c-0.1-0.1-0.2-0.3-0.3-0.4c-0.2-0.3-0.3-0.6-0.5-0.9
			c-0.2-0.3-0.6-0.5-0.9-0.4c-0.2,0.1-0.4,0.2-0.5,0.4l-0.2-0.2c-0.1-0.1-0.2-0.2-0.2-0.3l-0.1-0.1c0,0-0.1-0.1-0.1-0.1l-0.1-0.1
			l-0.1-0.1c-0.1-0.1-0.1-0.2-0.2-0.3c-0.1-0.2-0.3-0.4-0.4-0.6l-0.7-1.3c-0.2-0.4-0.4-0.9-0.6-1.3c-0.1-0.1-0.1-0.3-0.2-0.5
			c-0.1-0.2-0.2-0.5-0.2-0.7c-0.3-0.9-0.5-1.8-0.6-2.7c0-0.1-0.1-0.2-0.1-0.4v-0.3c0-0.3-0.1-0.5-0.1-0.8c-0.1-0.5-0.1-1.1,0-1.6
			c0-0.4-0.3-0.7-0.7-0.8c-0.4-0.1-0.8,0.2-0.9,0.6l-0.2,1.1c-0.2-0.2-0.3-0.5-0.5-0.8c-0.1-0.2-0.2-0.4-0.3-0.7
			c0-0.1-0.1-0.1-0.1-0.1v-0.1c-0.1-0.1-0.1-0.2-0.1-0.4c-0.1-0.3-0.2-0.7-0.3-1c0.1-0.1,0.1-0.2,0.2-0.3c1.8-2.6,2.8-5.6,3.9-8.5
			c0.2-0.5,0.3-0.9,0.5-1.4c0.9-0.1,1.7-0.2,2.5-0.4c0.2,0,0.3-0.1,0.4-0.3c0.1-0.2,0.1-0.4,0.1-0.5c-0.1-0.2-0.2-0.5-0.3-0.8
			c-0.1-0.1-0.1-0.2-0.2-0.3c0.8,0.1,1.6,0.4,2.3,0.7c0.5,0.2,0.9,0.4,1.3,0.7c0.3,0.1,0.6,0.1,0.8-0.1c0.1-0.1,0.1-0.2,0.2-0.3
			c0-0.2,0-0.4-0.1-0.5c-0.2-0.4-0.3-0.8-0.5-1.1c0.7,0.3,1.3,0.7,1.9,1.2c0.3,0.3,0.6,0.5,0.9,0.8c0.3,0.2,0.7,0.2,0.9,0
			c0.2-0.3,0.2-0.7,0-1c-1-1.1-2.3-1.9-3.7-2.5c-0.3-0.1-0.8-0.2-1.2-0.4c-0.3-0.1-0.5,0-0.7,0.2c-0.2,0.2-0.2,0.5-0.1,0.8
			c0.1,0.3,0.2,0.5,0.4,0.8l-0.5-0.2c-0.8-0.3-1.6-0.5-2.4-0.6h-0.2c0.6-1,1.3-1.9,2.1-2.7c2-1.9,4.7-3.2,7.4-2.6
			c0.3-0.1,0.6-0.1,0.9-0.1c2.8,0,5.5,1.3,7.2,3.5c0.5,0.6,1,1.3,1.4,2c-1.3,0.2-2.5,0.5-3.7,1c0.1-0.3,0.2-0.5,0.4-0.8
			c0.1-0.2,0.1-0.5-0.1-0.8c-0.2-0.2-0.4-0.3-0.7-0.2c-0.7,0.2-1.4,0.4-2.1,0.8c-0.6,0.3-1.3,0.7-1.9,1.2c-0.3,0.3-0.6,0.5-0.9,0.8
			c-0.3,0.3-0.3,0.7,0,1c0.2,0.3,0.6,0.3,0.9,0c0,0,0,0,0,0c0.3-0.3,0.6-0.6,0.9-0.8c0.6-0.5,1.2-0.8,1.9-1.1
			c-0.2,0.4-0.3,0.8-0.5,1.1c-0.1,0.1-0.1,0.3-0.1,0.4c0,0.1,0.1,0.3,0.2,0.4c0.2,0.2,0.5,0.2,0.8,0.1c0.4-0.2,0.9-0.5,1.3-0.7
			c0.8-0.3,1.5-0.5,2.3-0.7c-0.1,0.1-0.1,0.2-0.2,0.3c-0.1,0.2-0.2,0.5-0.3,0.8c0,0.2,0,0.4,0.1,0.5c0.1,0.2,0.2,0.3,0.4,0.3
			c0.9,0.1,1.7,0.3,2.6,0.4h0.4c0.3,0.8,0.6,1.6,0.9,2.4c0.5,1.5,1.1,3,1.7,4.4c0.1,1.3,0.2,2.6,0.2,3.9c0,1.2,0,2.4-0.1,3.6
			c0,0.1-0.1,0.3-0.1,0.4v0.3c-0.1,0.3-0.1,0.6-0.2,1c-0.1,0.2-0.1,0.4-0.1,0.6c-0.3-0.1-0.6-0.1-0.9,0.1
			C-143.6-86.1-143.9-85-144.1-84z"/>
		<path id="Trazado_3" class="st2" d="M-141.5-84.9"/>
		<path id="Trazado_4" class="st0" d="M-149.5-93h-11.3c-0.3,0-0.6,0.3-0.7,0.6c0,0,0,0,0,0.1c0,0.4,0.3,0.7,0.7,0.7h11.3
			c0.3,0,0.6-0.2,0.7-0.6c0,0,0,0,0-0.1C-148.9-92.7-149.2-93-149.5-93z"/>
		<path id="Trazado_5" class="st0" d="M-149.6-99.1c2,0,3.6-1.6,3.6-3.6h-7.2C-153.2-100.7-151.6-99.1-149.6-99.1z"/>
		<path id="Trazado_6" class="st3" d="M-167.6-80.8l-5.9-11.4c-1.8-0.5-3.9,2-3.9,5S-173.6-80-167.6-80.8z"/>
		<g id="Grupo_1" transform="translate(-154.703 -107.953)">
			<path id="Trazado_7" class="st3" d="M16.9,13.5l-1.4,4c0,0.9,0,1.8-0.1,2.7c0,0.1-0.1,0.3-0.1,0.4V21c-0.1,0.3-0.1,0.6-0.2,1
				c-0.1,0.2-0.1,0.4-0.1,0.6c-0.3-0.1-0.6-0.1-1,0.1c-0.1,0-0.2,0.1-0.4,0.1l-1.3,3.9c7.3,0.3,9.1-2.7,9.1-6.3S19.4,13.6,16.9,13.5
				z"/>
		</g>
		<path id="Trazado_8" class="st0" d="M-161.4-99.1c2,0,3.6-1.6,3.6-3.6h-7.2C-165-100.7-163.4-99.1-161.4-99.1z"/>
		<path id="Trazado_9" class="st0" d="M-159.2-96.4c-0.1,0.3,0,0.7,0.2,1c0.2,0.3,0.6,0.5,0.9,0.3c0.2-0.1,0.2-0.2,0.4-0.4
			c0.1-0.2,0.2-0.3,0.3-0.5c0.2-0.3,0.6-0.4,1-0.3c0.2,0.1,0.3,0.2,0.3,0.4c0.1,0.2,0.1,0.4,0.1,0.5c0.1,0.3,0.4,0.4,0.7,0.4l0,0
			c0.3,0.1,0.7-0.1,0.8-0.5c0.1-0.2,0.1-0.4,0.1-0.5c0.1-0.2,0.3-0.3,0.5-0.3c0.4,0,0.7,0.3,0.8,0.6c0.2,0.3,0.4,0.7,0.7,0.7
			c0.4,0,0.7-0.3,0.8-0.6c0.1-0.3,0.1-0.7,0-1.1c-0.3-0.7-0.9-1.3-1.6-1.6c-0.7-0.3-1.5-0.7-2.1-1.1c-0.8,0.5-1.6,0.9-2.4,1.3
			C-158.5-97.8-159-97.2-159.2-96.4z"/>
		<path id="Trazado_10" class="st2" d="M-141.6-84.9"/>
		<path id="Trazado_11" class="st2" d="M-141.6-84.9"/>
		<path id="Trazado_12" class="st2" d="M-141.5-84.9"/>
		<g id="Grupo_2" transform="translate(-179.289 -110.248)">
			<path id="Trazado_13" class="st0" d="M15.7,16.5l-1.5,0l1.7-2.4c0.3-0.5-0.4-0.9-0.8-0.5L13,16.8c-0.1,0.2,0,0.5,0.2,0.6
				c0.1,0,0.1,0.1,0.2,0.1l1.6,0l-2.5,4.2c-0.1,0.2,0,0.5,0.2,0.6c0.2,0.1,0.5,0,0.6-0.2l2.9-4.9c0.1-0.2,0-0.5-0.2-0.6
				C15.9,16.6,15.8,16.5,15.7,16.5z"/>
			<path id="Trazado_14" class="st0" d="M35.1,21.7l-2.5-4.2l1.6,0c0.2,0,0.4-0.2,0.4-0.5c0-0.1,0-0.2-0.1-0.2l-2.1-3.1
				c-0.3-0.5-1.1,0-0.8,0.5l1.7,2.4l-1.5,0c-0.2,0-0.4,0.2-0.4,0.5c0,0.1,0,0.1,0.1,0.2l2.9,4.9c0.1,0.2,0.4,0.3,0.6,0.1
				C35.1,22.1,35.2,21.9,35.1,21.7z"/>
		</g>
		<path id="Trazado_15" class="st3" d="M-164.2-69.5c0.1-1.9,0.3-3.7,0.6-5.6c0.4-2.5-2.1-3.5-2.6-1.1c-0.4,2.2-0.6,4.4-0.7,6.6
			H-164.2z"/>
	</g>
	<g>
		<path class="st2" d="M104.1,43.2c0-2.2-1.2-4.4-3.9-6.7c-1.5-1.2-1.2-1.8,0.9-1.7h4.3v12.4h5.7v-5.2l4.4,5.2h7h4.2h12.5v-5.2
			h-10.9v-2h6.1v-3.1h-6.1v-2h8.2h1.2h4.4v12.4h5.7V34.7h4.4c-0.4,1-0.6,2.1-0.6,3.4c0,1.4,0.3,2.7,0.8,3.8c0.5,1.1,1.2,2,2.1,2.7
			c0.9,0.7,1.8,1.3,2.8,1.7c0.9,0.4,2.3,0.7,4.1,0.8c1.9-0.1,3.3-0.3,4.3-0.7c1-0.4,2-1,3-2l-3.5-3.9c-0.6,0.5-1.1,0.8-1.6,1
			c-0.5,0.2-1.2,0.3-2.2,0.4c-1-0.1-1.8-0.3-2.3-0.6c-0.5-0.3-0.9-0.7-1.3-1.2c-0.4-0.5-0.6-1.2-0.6-2.2c0.1-1,0.3-1.7,0.6-2.2
			c0.4-0.5,0.8-0.9,1.3-1.2c0.5-0.3,1.2-0.5,2.3-0.6c1,0.1,1.8,0.2,2.2,0.4c0.5,0.2,1,0.6,1.6,1l0.8-0.9h3.5v12.4h5.7v-6.3h4.6v6.3
			h5.7V34.7h2.5l4.1,5.9v6.5h5.8v-6.5l7.7-11.2h-7l-3.6,5.4l-3.6-5.4h-5.9h-1.2h-4.6v6.1h-4.6v-6.1h-9.4v0.3c0,0-0.1,0-0.1-0.1
			c-1-0.4-2.4-0.6-4.3-0.7c-1.8,0.1-3.2,0.4-4.1,0.8c-0.9,0.4-1.9,1-2.8,1.7c-0.4,0.3-0.8,0.7-1.1,1.1v-3.2h-15.7h-1.2h-15.6h-2
			h-3.7l-4,5.7v-5.7h-4.5h-1.3h-9.6c-2.2,0-3.6,1.1-4,3.3c-0.4,2.2,0.8,4.6,3.6,7.2c1.7,1.4,1.4,2-0.9,1.9h-9.7v5.2h15.4
			C102.7,46.7,104,45.4,104.1,43.2z M118.9,32.2v2.5h3.7v7.1h-5.3l-2.9-3.6L118.9,32.2z"/>
		<g>
			<path class="st2" d="M123.5,53.9c-1.5-0.7-3.3-1-5.5-1c-1.6,0-3,0.2-4.3,0.6s-2.3,1-3.2,1.7c-0.3,0.3-0.6,0.6-0.9,1l0.8-3.2h-5.7
				l-1.6,7.6l-2.5-7.6h-5.3l-2.1,7.6L90.9,53h-8.1v5.2h3.7l4.1,12.4h5.7l1.9-7.5l2.2,7.5h5.7l1.9-7.7c0.1,1.5,0.5,2.8,1.1,3.9
				c0.8,1.3,1.9,2.4,3.4,3.1c1.5,0.7,3.3,1,5.5,1c2.1,0,3.9-0.3,5.5-1c1.5-0.7,2.7-1.7,3.5-3.1c0.8-1.4,1.2-3,1.2-4.9
				s-0.4-3.6-1.2-4.9C126.1,55.6,125,54.6,123.5,53.9z M121.6,64c-0.1,0.6-0.5,1.1-1.1,1.5c-0.6,0.4-1.4,0.7-2.6,0.7
				c-1.5,0-2.5-0.4-3-1.3s-0.8-1.8-0.8-3c0-2.8,1.3-4.2,3.8-4.2c1.6,0,2.6,0.4,3.1,1.3c0.5,0.8,0.8,1.8,0.8,3
				C121.9,62.7,121.8,63.4,121.6,64z"/>
			<path class="st2" d="M143.9,53.9c-1.5-0.7-3.3-1-5.5-1c-1.6,0-3,0.2-4.3,0.6c-1.3,0.4-2.3,1-3.2,1.7c-0.9,0.8-1.5,1.7-2,2.8
				c-0.4,1.1-0.7,2.4-0.7,3.9c0,1.9,0.4,3.6,1.2,4.9c0.8,1.3,1.9,2.4,3.4,3.1c1.5,0.7,3.3,1,5.5,1c2.1,0,3.9-0.3,5.5-1
				s2.7-1.7,3.5-3.1s1.2-3,1.2-4.9s-0.4-3.6-1.2-4.9C146.6,55.6,145.5,54.6,143.9,53.9z M142.1,64c-0.1,0.6-0.5,1.1-1.1,1.5
				c-0.6,0.4-1.4,0.7-2.6,0.7c-1.5,0-2.5-0.4-3-1.3c-0.5-0.8-0.8-1.8-0.8-3c0-2.8,1.3-4.2,3.8-4.2c1.6,0,2.6,0.4,3.1,1.3
				c0.5,0.8,0.8,1.8,0.8,3C142.3,62.7,142.2,63.4,142.1,64z"/>
			<polygon class="st2" points="166.4,65.3 161.3,65.3 158.4,61.8 165,53 159.2,53 155.2,58.7 155.2,53 149.5,53 149.5,70.6 
				155.2,70.6 155.2,65.3 159.7,70.6 166.4,70.6 166.6,70.6 172.1,70.6 172.1,53 166.4,53 			"/>
			<polygon class="st2" points="179.1,63.3 185.1,63.3 185.1,60.2 179.1,60.2 179.1,58.2 188.4,58.2 188.4,53 173.3,53 173.3,70.6 
				189.9,70.6 189.9,65.3 179.1,65.3 			"/>
			<polygon class="st2" points="196.8,63.3 202.9,63.3 202.9,60.2 196.8,60.2 196.8,58.2 206.2,58.2 206.2,53 191.1,53 191.1,70.6 
				207.7,70.6 207.7,65.3 196.8,65.3 			"/>
		</g>
	</g>
</g>
</svg>
